<svg width="1948" height="1948" viewBox="0 0 1948 1948" fill="none" xmlns="http://www.w3.org/2000/svg">
<g filter="url(#filter0_ii_83_11)">
<rect width="1948" height="1948" rx="400" fill="url(#paint0_linear_83_11)"/>
<path d="M1373.57 1388.77C1384.39 1399.99 1384.1 1417.92 1372.38 1428.2C1291.08 1499.51 1191.98 1547.81 1085.36 1567.81C969.469 1589.54 849.753 1576.89 740.966 1531.41C632.18 1485.93 539.08 1409.61 473.141 1311.86C407.203 1214.11 371.308 1099.21 369.882 981.304C368.456 863.403 401.561 747.661 465.117 648.346C528.672 549.031 619.899 470.484 727.554 422.387C835.208 374.29 954.583 358.746 1070.96 377.67C1178.04 395.082 1278.28 440.97 1361.28 510.29C1373.24 520.285 1373.97 538.201 1363.43 549.688L1221.64 704.173C1211.1 715.66 1193.31 716.32 1180.98 706.772C1136.52 672.338 1084.05 649.443 1028.25 640.37C963.136 629.783 896.349 638.479 836.12 665.388C775.89 692.297 724.851 736.241 689.294 791.805C653.736 847.369 635.215 912.123 636.013 978.086C636.811 1044.05 656.893 1108.34 693.783 1163.02C730.674 1217.71 782.761 1260.41 843.624 1285.85C904.486 1311.3 971.464 1318.38 1036.3 1306.22C1091.86 1295.8 1143.77 1271.64 1187.38 1236.14C1199.47 1226.3 1217.28 1226.53 1228.09 1237.75L1373.57 1388.77Z" fill="white"/>
<path d="M1373.57 1388.77C1384.39 1399.99 1384.1 1417.92 1372.38 1428.2C1291.08 1499.51 1191.98 1547.81 1085.36 1567.81C969.469 1589.54 849.753 1576.89 740.966 1531.41C632.18 1485.93 539.08 1409.61 473.141 1311.86C407.203 1214.11 371.308 1099.21 369.882 981.304C368.456 863.403 401.561 747.661 465.117 648.346C528.672 549.031 619.899 470.484 727.554 422.387C835.208 374.29 954.583 358.746 1070.96 377.67C1178.04 395.082 1278.28 440.97 1361.28 510.29C1373.24 520.285 1373.97 538.201 1363.43 549.688L1221.64 704.173C1211.1 715.66 1193.31 716.32 1180.98 706.772C1136.52 672.338 1084.05 649.443 1028.25 640.37C963.136 629.783 896.349 638.479 836.12 665.388C775.89 692.297 724.851 736.241 689.294 791.805C653.736 847.369 635.215 912.123 636.013 978.086C636.811 1044.05 656.893 1108.34 693.783 1163.02C730.674 1217.71 782.761 1260.41 843.624 1285.85C904.486 1311.3 971.464 1318.38 1036.3 1306.22C1091.86 1295.8 1143.77 1271.64 1187.38 1236.14C1199.47 1226.3 1217.28 1226.53 1228.09 1237.75L1373.57 1388.77Z" fill="url(#paint1_linear_83_11)"/>
<path d="M1290.36 989.684C1279.26 978.977 1278.8 961.337 1289.34 950.071L1471.71 755.115C1485.4 740.485 1509.09 744.557 1515.92 763.388C1532.49 809.031 1556.34 888.89 1556.34 970.382C1556.34 1047.37 1538.6 1120.43 1525.61 1163.6C1519.82 1182.84 1496.31 1188.19 1481.84 1174.25L1290.36 989.684Z" fill="white"/>
<path d="M1290.36 989.684C1279.26 978.977 1278.8 961.337 1289.34 950.071L1471.71 755.115C1485.4 740.485 1509.09 744.557 1515.92 763.388C1532.49 809.031 1556.34 888.89 1556.34 970.382C1556.34 1047.37 1538.6 1120.43 1525.61 1163.6C1519.82 1182.84 1496.31 1188.19 1481.84 1174.25L1290.36 989.684Z" fill="url(#paint2_linear_83_11)"/>
<path fill-rule="evenodd" clip-rule="evenodd" d="M701.562 774.965C638.323 860.789 633.805 937.298 636.628 989.526C639.452 1027.64 638.605 1030.75 657.802 1093.98C663.98 1114.33 673.734 1133.86 684.938 1151.66C686.555 1152.73 688.126 1154.41 689.637 1156.76C726.153 1213.57 778.85 1258.14 840.933 1284.72C903.016 1311.31 971.64 1318.68 1037.95 1305.9C1095 1294.9 1148.09 1269.42 1192.21 1232.12C1204.12 1222.05 1221.92 1221.95 1232.95 1232.97L1381.22 1381.24C1392.24 1392.27 1392.29 1410.2 1380.76 1420.7C1298.75 1495.38 1197.6 1546.18 1088.33 1567.24C969.799 1590.09 847.142 1576.9 736.174 1529.39C647.9 1490.64 613.342 1461.74 601.318 1449.7C600.916 1449.3 600.559 1448.75 600.241 1448.05C570.84 1403.31 518.562 1279.76 536.406 1123.63C554.474 965.529 654.039 825.311 701.562 774.965Z" fill="white"/>
<path fill-rule="evenodd" clip-rule="evenodd" d="M701.562 774.965C638.323 860.789 633.805 937.298 636.628 989.526C639.452 1027.64 638.605 1030.75 657.802 1093.98C663.98 1114.33 673.734 1133.86 684.938 1151.66C686.555 1152.73 688.126 1154.41 689.637 1156.76C726.153 1213.57 778.85 1258.14 840.933 1284.72C903.016 1311.31 971.64 1318.68 1037.95 1305.9C1095 1294.9 1148.09 1269.42 1192.21 1232.12C1204.12 1222.05 1221.92 1221.95 1232.95 1232.97L1381.22 1381.24C1392.24 1392.27 1392.29 1410.2 1380.76 1420.7C1298.75 1495.38 1197.6 1546.18 1088.33 1567.24C969.799 1590.09 847.142 1576.9 736.174 1529.39C647.9 1490.64 613.342 1461.74 601.318 1449.7C600.916 1449.3 600.559 1448.75 600.241 1448.05C570.84 1403.31 518.562 1279.76 536.406 1123.63C554.474 965.529 654.039 825.311 701.562 774.965Z" fill="url(#paint3_linear_83_11)"/>
</g>
<defs>
<filter id="filter0_ii_83_11" x="0" y="-4" width="1948" height="1956" filterUnits="userSpaceOnUse" color-interpolation-filters="sRGB">
<feFlood flood-opacity="0" result="BackgroundImageFix"/>
<feBlend mode="normal" in="SourceGraphic" in2="BackgroundImageFix" result="shape"/>
<feColorMatrix in="SourceAlpha" type="matrix" values="0 0 0 0 0 0 0 0 0 0 0 0 0 0 0 0 0 0 127 0" result="hardAlpha"/>
<feOffset dy="4"/>
<feGaussianBlur stdDeviation="5"/>
<feComposite in2="hardAlpha" operator="arithmetic" k2="-1" k3="1"/>
<feColorMatrix type="matrix" values="0 0 0 0 1 0 0 0 0 1 0 0 0 0 1 0 0 0 0.15 0"/>
<feBlend mode="normal" in2="shape" result="effect1_innerShadow_83_11"/>
<feColorMatrix in="SourceAlpha" type="matrix" values="0 0 0 0 0 0 0 0 0 0 0 0 0 0 0 0 0 0 127 0" result="hardAlpha"/>
<feOffset dy="-4"/>
<feGaussianBlur stdDeviation="5"/>
<feComposite in2="hardAlpha" operator="arithmetic" k2="-1" k3="1"/>
<feColorMatrix type="matrix" values="0 0 0 0 1 0 0 0 0 1 0 0 0 0 1 0 0 0 0.08 0"/>
<feBlend mode="normal" in2="effect1_innerShadow_83_11" result="effect2_innerShadow_83_11"/>
</filter>
<linearGradient id="paint0_linear_83_11" x1="974" y1="0" x2="974" y2="1948" gradientUnits="userSpaceOnUse">
<stop stop-color="#0D1C23"/>
<stop offset="1" stop-color="#0B121A"/>
</linearGradient>
<linearGradient id="paint1_linear_83_11" x1="369.838" y1="973.998" x2="1578.16" y2="973.998" gradientUnits="userSpaceOnUse">
<stop stop-color="#06B6D4"/>
<stop offset="1" stop-color="#00D1B9"/>
</linearGradient>
<linearGradient id="paint2_linear_83_11" x1="1270.34" y1="967.5" x2="1556.34" y2="967.5" gradientUnits="userSpaceOnUse">
<stop stop-color="#00D1B9"/>
<stop offset="1" stop-color="#06B6D4"/>
</linearGradient>
<linearGradient id="paint3_linear_83_11" x1="532.779" y1="1176.56" x2="1389.45" y2="1176.56" gradientUnits="userSpaceOnUse">
<stop stop-color="#128B9F"/>
<stop offset="1" stop-color="#00D1B9"/>
</linearGradient>
</defs>
</svg>
